
<svg xmlns="http://www.w3.org/2000/svg" width="24" height="20">
  <defs>
    <clipPath id="b">
      <path d="M0 792h612V0H0z"/>
    </clipPath>
    <clipPath id="c">
      <path d="M0 792h612V0H0z"/>
    </clipPath>
    <clipPath id="d">
      <path d="M96.0078 715.93h88.2902v-62.176H96.0078z"/>
    </clipPath>
    <clipPath id="e">
      <path d="M0 792h612V0H0z"/>
    </clipPath>
    <clipPath id="f">
      <path d="M0 792h612V0H0z"/>
    </clipPath>
    <clipPath id="g">
      <path d="M0 792h612V0H0z"/>
    </clipPath>
    <clipPath id="h">
      <path d="M0 792h612V0H0z"/>
    </clipPath>
    <clipPath id="i">
      <path d="M121.202 708.378h45.899v-45.859h-45.899z"/>
    </clipPath>
    <clipPath id="j">
      <path d="M0 792h612V0H0z"/>
    </clipPath>
    <clipPath id="k">
      <path d="M40.4033 726.188H252.805V664.37H40.4033z"/>
    </clipPath>
    <clipPath id="l">
      <path d="M0 792h612V0H0z"/>
    </clipPath>
    <clipPath id="m">
      <path d="M39.5195 688.644H238.9v-73.818H39.5195z"/>
    </clipPath>
    <clipPath id="a">
      <path d="M0 792h612V0H0z"/>
    </clipPath>
  </defs>
  <g fill="#010000" stroke-width=".19771773" aria-label="Workbench" font-family="Roboto" font-size="2.63627934" font-weight="400" letter-spacing="0" style="line-height:0%;-inkscape-font-specification:'Roboto, weight=255';font-variant-ligatures:normal;font-variant-caps:normal;font-variant-numeric:normal;font-feature-settings:normal;text-align:start" word-spacing="0">
    <g>
      <g fill="#000" clip-path="url(#a)" transform="matrix(.11145 0 0 -.11145 -4.32872411 81.89846808)">
        <path d="M61.4912 609.1372c1.824 0 3.552-.432 4.417-1.296.144-1.345-1.057-3.505-1.825-3.505-.912.336-1.776.529-2.832.529-4.368 0-6.529-4.513-6.529-8.977 0-2.784.96-4.465 3.169-4.465 2.352 0 4.752 1.584 6.096 2.784.336-.239.768-1.008.768-1.872 0-.96-.288-1.872-1.152-2.736-1.536-1.536-4.128-2.832-7.873-2.832-4.32 0-7.296 2.448-7.296 8.161 0 7.488 4.944 14.209 13.009 14.209zM75.6021 591.6636c2.352 0 6.625 4.129 7.825 12.001.048.48.096.624.192 1.104-.528.192-1.248.336-1.969.336-1.776 0-3.6-.528-5.232-2.736-1.68-2.352-2.4-5.28-2.4-7.633 0-2.015.576-3.072 1.536-3.072zm-7.729 2.16c0 2.832.96 7.777 4.561 11.377 3.072 3.168 6.816 3.937 10.225 3.937 2.256 0 5.328-.72 7.248-1.105-.48-2.112-1.632-10.08-2.16-14.688-.24-1.969-.336-4.705-.24-5.713-1.584-.672-4.56-.864-5.377-.864-.431 0-.528 1.968-.383 3.84.047.624.144 1.536.191 1.92-1.872-3.12-5.568-5.76-9.456-5.76-2.784 0-4.609 2.304-4.609 7.008zM101.8579 609.1372c1.968 0 3.84-.72 4.705-1.632-.048-1.345-1.104-3.6-2.785-2.976-.72.24-1.44.431-2.4.431-1.296 0-2.4-.576-2.4-1.775 0-.912.672-1.585 3.888-3.841 2.305-1.68 3.217-3.168 3.217-5.28 0-3.505-3.313-7.297-9.073-7.297-2.352 0-4.417.912-5.089 1.872-.864 1.44-.192 4.272.769 3.793 1.248-.624 3.312-1.297 4.992-1.297 1.584 0 2.592.721 2.592 1.681 0 .815-.72 1.536-3.648 3.6-2.449 1.824-3.217 3.504-3.217 5.424 0 3.984 3.409 7.297 8.401 7.297zM118.417 609.1372c1.969 0 3.841-.72 4.705-1.632-.048-1.345-1.103-3.6-2.784-2.976-.72.24-1.441.431-2.4.431-1.296 0-2.4-.576-2.4-1.775 0-.912.672-1.585 3.888-3.841 2.304-1.68 3.216-3.168 3.216-5.28 0-3.505-3.313-7.297-9.073-7.297-2.352 0-4.416.912-5.088 1.872-.864 1.44-.192 4.272.768 3.793 1.248-.624 3.312-1.297 4.992-1.297 1.584 0 2.592.721 2.592 1.681 0 .815-.72 1.536-3.648 3.6-2.448 1.824-3.216 3.504-3.216 5.424 0 3.984 3.408 7.297 8.401 7.297zM133.5361 591.6636c2.353 0 6.625 4.129 7.825 12.001.048.48.097.624.193 1.104-.529.192-1.248.336-1.969.336-1.776 0-3.6-.528-5.233-2.736-1.679-2.352-2.4-5.28-2.4-7.633 0-2.015.576-3.072 1.537-3.072zm-7.729 2.16c0 2.832.961 7.777 4.561 11.377 3.072 3.168 6.816 3.937 10.225 3.937 2.256 0 5.329-.72 7.249-1.105-.48-2.112-1.632-10.08-2.16-14.688-.241-1.969-.336-4.705-.241-5.713-1.584-.672-4.559-.864-5.376-.864-.431 0-.528 1.968-.384 3.84.048.624.144 1.536.192 1.92-1.872-3.12-5.568-5.76-9.456-5.76-2.785 0-4.61 2.304-4.61 7.008zM158.688 602.897c2.209 3.552 5.088 6.24 9.121 6.24 3.408 0 4.512-3.168 3.889-7.68-.336-2.113-.912-5.137-1.297-7.921-.336-2.353-.576-4.464-.527-5.905-1.248-.624-4.897-.864-5.713-.864-.336 0-.385 2.641.048 5.425.383 2.304 1.2 6.48 1.584 8.881.241 1.391.192 3.072-1.152 3.072-1.777 0-6-2.833-8.113-14.449-.145-.96-.528-1.536-1.057-1.872-.719-.433-2.256-.817-5.375-.865.576 2.928 1.488 8.929 2.16 13.345.623 4.032.864 6.625.719 7.633.817.288 5.09 1.2 5.568 1.2.53 0 .625-1.488.145-5.089-.047-.336-.096-.863-.145-1.151zM183.0728 591.7114c2.111 0 6.385 3.937 7.584 10.897.049.384.193 1.104.289 1.537-.625.576-1.441.96-2.736.96-4.85 0-7.01-5.809-7.01-9.986 0-2.256.769-3.408 1.824-3.408zm-3.168-4.944c-3.072 0-4.992 2.736-4.992 7.44 0 7.777 4.847 14.93 13.008 14.93 1.441 0 2.736-.384 3.552-.864.432 2.208 1.44 9.025 1.489 11.041 1.343.24 4.224.671 5.519.671.53 0 .674-.527.481-1.727-1.153-7.201-3.215-21.026-3.6-24.099-.289-2.592-.336-5.136-.289-6.576-1.535-.672-4.656-.816-5.471-.816-.338 0-.529 2.208-.433 4.176.049.624.144 1.537.144 1.68-2.4-3.936-5.713-5.856-9.361-5.856zM208.0317 602.2241c2.545 5.665 5.568 6.913 7.537 6.913.625 0 1.584-.384 2.016-.864.193-1.584-1.055-4.752-2.16-5.952-.577.288-1.295.576-2.112.576-1.633 0-4.849-2.545-6.865-13.489-.145-.913-.432-1.297-.959-1.537-.816-.48-4.033-.864-5.568-.912.718 3.937 1.966 11.953 2.447 16.658.144 1.2.191 3.408.096 4.272.912.432 4.513 1.248 5.328 1.248.433 0 .769-2.641.095-6.913zM224.9751 591.6636c2.354 0 6.625 4.129 7.826 12.001.047.48.096.624.192 1.104-.528.192-1.248.336-1.969.336-1.776 0-3.6-.528-5.233-2.736-1.679-2.352-2.4-5.28-2.4-7.633 0-2.015.576-3.072 1.537-3.072zm-7.729 2.16c0 2.832.961 7.777 4.561 11.377 3.072 3.168 6.816 3.937 10.225 3.937 2.256 0 5.328-.72 7.25-1.105-.481-2.112-1.633-10.08-2.161-14.688-.24-1.969-.337-4.705-.24-5.713-1.584-.672-4.56-.864-5.377-.864-.431 0-.527 1.968-.384 3.84.048.624.144 1.536.193 1.92-1.873-3.12-5.568-5.76-9.457-5.76-2.785 0-4.61 2.304-4.61 7.008z"/>
      </g>
      <g clip-path="url(#b)" transform="matrix(.11145 0 0 -.11145 -4.32872411 81.89846826)">
        <path fill="#bbe6fb" d="M210.8784 690.4834c1.584-18.452-27.455-36.014-64.859-39.223-37.404-3.209-69.01 9.151-70.592 27.602-1.584 18.455 27.455 36.016 64.859 39.225 37.404 3.208 69.01-9.149 70.592-27.604"/>
      </g>
      <g clip-path="url(#c)" transform="matrix(.11145 0 0 -.11145 -4.32872411 81.89846826)">
        <g clip-path="url(#d)" opacity=".35000604">
          <path fill="#fff" d="M141.3843 715.9233c-14.268.232-30.964-5.433-43.387-10.738-1.293-3.726-1.989-7.689-1.989-11.797 0-21.888 19.764-39.634 44.145-39.634 24.381 0 44.145 17.746 44.145 39.634 0 6.927-1.984 13.435-5.463 19.101-9.939 1.545-23.609 3.209-37.451 3.434"/>
        </g>
      </g>
      <g clip-path="url(#e)" transform="matrix(.11145 0 0 -.11145 -4.32872411 81.89846826)">
        <path fill="#fff" d="M140.1528 715.9277c-7.899.482-21.514-3.639-32.867-7.75-1.725-4.071-2.683-8.526-2.683-13.201 0-19.178 17.388-34.725 35.782-34.725 18.273 0 34.44 15.572 35.782 34.725.436 6.237-1.711 12.114-4.692 17.181-11.77 2.073-24.261 3.339-31.322 3.77"/>
      </g>
      <g clip-path="url(#f)" transform="matrix(.11145 0 0 -.11145 -4.32872411 81.89846826)">
        <path fill="#373535" d="M119.8818 697.4946c.969 2.146 2.437 3.197 3.859 4.996-.158.426-.504 1.819-.504 2.302 0 2.156 1.749 3.906 3.906 3.906.509 0 .995-.101 1.44-.278 6.465 4.927 14.976 7.075 23.529 5.163.781-.176 1.547-.389 2.299-.623-8.453 1.172-17.981-1.822-24.462-7.053.198-.467.747-1.802.747-2.339 0-2.157-1.396-2.682-3.553-2.682-.49 0-.958.094-1.391.259-1.464-1.966-3.258-5.711-4.136-8.052 3.584-3.206 6.822-4.368 11.042-5.945-.011.201.145.387.145.592 0 6.503 5.725 11.788 12.229 11.788 5.828 0 10.654-4.238 11.596-9.798 2.908 1.85 5.72 3.268 7.863 6.01-.5.61-1.039 2.337-1.039 3.187 0 1.957 1.588 3.544 3.545 3.544.277 0 .543-.04.802-.1 1.088 2.236 1.909 4.606 2.434 7.05-10.17 7.529-29.847 6.502-29.847 6.502s-15.658.817-26.258-4.349c.707-5.111 2.746-9.97 5.754-14.08"/>
        <path fill="#373535" d="M168.4907 700.4282c.719-.648 1.111-1.217 1.42-1.771.951-1.71-.957-3.275-2.914-3.275-.199 0-.391.027-.582.059-2.205-3.446-6.067-7.865-9.498-10.089 5.261-.862 10.222-2.969 14.17-6.225 2.875 5.151 5.08 12.589 5.08 18.907 0 4.809-2.123 8.334-5.328 10.92-.168-2.576-1.543-6.179-2.348-8.526M125.7842 667.8032c1.753 4.841 6.065 8.592 10.144 11.892-.597.817-1.492 2.84-1.865 3.798-4.975 1.513-9.377 4.345-12.791 8.094-.025-.109-.056-.215-.082-.324-.643-2.881-.761-5.768-.441-8.584 2.382-.444 4.185-2.531 4.185-5.042 0-1.489-1.305-3.647-2.318-4.586 1.101-2.376 1.852-3.522 3.168-5.248"/>
        <path fill="#373535" d="M125.4756 663.7393c-2.091 2.079-3.537 6.226-4.894 8.83-.254-.039-.514-.066-.78-.066-2.836 0-5.807 2.38-5.135 5.134.372 1.524 1.424 2.521 3.137 3.353-.39 3.157-.496 7.695.237 10.977.21.939.655 1.379.95 2.273-3.129 4.579-5.151 10.589-5.151 16.552 0 .218.011.433.016.649-5.288-2.652-9.253-6.83-9.253-13.407 0-14.548 8.379-28.819 20.846-34.413.009.039.017.079.027.118M156.1313 683.8511c-1.611-4.582-5.967-7.873-11.1-7.873-2.746 0-5.265.947-7.267 2.521-4.127-3.214-7.871-8.86-9.774-13.758.854-.919 1.449-1.675 2.407-2.49 2.887-.752 6.863 0 9.988 0 12.57 0 23.703 5.592 30.086 15.398-4.244 2.939-9.25 5.736-14.34 6.202"/>
      </g>
      <g clip-path="url(#g)" transform="matrix(.11145 0 0 -.11145 -4.32872411 81.89846826)">
        <path fill="#1287b1" d="M119.5596 695.7944c.969 2.146 2.184 4.132 3.605 5.931-.158.425-.25.884-.25 1.367 0 2.156 1.749 3.906 3.906 3.906.509 0 .995-.101 1.44-.278 6.465 4.927 14.976 7.075 23.529 5.163.781-.176 1.547-.389 2.299-.623-8.453 1.172-17.187-1.419-23.668-6.651.198-.466.306-.98.306-1.517 0-2.157-1.749-3.906-3.906-3.906-.49 0-.958.094-1.391.259-1.464-1.966-2.661-4.138-3.539-6.48 3.078-3.317 6.856-5.94 11.075-7.517-.01.201-.031.4-.031.605 0 6.503 5.271 11.775 11.775 11.775 5.828 0 10.654-4.238 11.596-9.798 2.908 1.85 5.492 4.226 7.634 6.968-.5.61-.81 1.379-.81 2.229 0 1.957 1.588 3.544 3.545 3.544.277 0 .543-.04.802-.1 1.088 2.236 1.909 4.606 2.434 7.05-10.17 7.529-29.847 6.502-29.847 6.502s-15.658.817-26.258-4.349c.707-5.111 2.746-9.97 5.754-14.08"/>
        <path fill="#1287b1" d="M169.0396 699.8481c.719-.648 1.18-1.577 1.18-2.621 0-1.957-1.588-3.545-3.545-3.545-.199 0-.391.027-.582.059-2.205-3.446-5.127-6.384-8.559-8.608 5.072-.793 9.846-2.945 13.793-6.201 2.875 5.151 4.518 11.084 4.518 17.402 0 4.809-2.123 8.334-5.328 10.92-.168-2.576-.672-5.059-1.477-7.406M126.3252 666.6401c1.753 4.841 4.799 9.185 8.878 12.484-.597.818-1.089 1.711-1.462 2.669-4.976 1.513-9.377 4.345-12.791 8.094-.025-.109-.057-.215-.082-.324-.644-2.881-.762-5.768-.441-8.584 2.381-.444 4.185-2.531 4.185-5.042 0-1.489-.639-2.828-1.652-3.767.919-1.948 2.049-3.804 3.365-5.53"/>
        <path fill="#1287b1" d="M125.4619 663.7983c-2.091 2.079-3.846 4.467-5.202 7.07-.255-.039-.515-.065-.78-.065-2.836 0-5.135 2.299-5.135 5.134 0 2.032 1.184 3.784 2.897 4.616-.389 3.156-.257 6.432.477 9.714.21.938.466 1.854.761 2.749-3.129 4.578-4.962 10.113-4.962 16.076 0 .218.01.433.015.648-5.288-2.651-9.253-6.83-9.253-13.406 0-14.549 8.688-27.06 21.155-32.654.009.039.017.079.027.118M155.8091 682.1509c-1.611-4.582-5.967-7.873-11.1-7.873-2.746 0-5.265.947-7.267 2.521-4.127-3.214-7.242-7.595-9.144-12.494.853-.919 1.765-1.785 2.723-2.599 2.888-.752 5.917-1.155 9.042-1.155 12.57 0 23.621 6.49 30.004 16.295-4.244 2.94-9.168 4.839-14.258 5.305"/>
      </g>
      <g clip-path="url(#h)" transform="matrix(.11145 0 0 -.11145 -4.32872411 81.89846826)">
        <g clip-path="url(#i)">
          <path fill="#fff" d="M156.2222 685.187l10.879 2.595-10.92.557 8.887 6.792-10.084-3.615 6.853 9.497-9.465-6.291 3.309 11.117-6.5-9.163-.148 11.579-4.277-10.314-3.566 10.437.193-12.295-6.163 11.021 3.335-11.702-9.997 7.27 7.831-9.84-12.411 4.564 9.795-7.247-12.56-.386 12.842-3.314-12.853-2.779 12.687-.92-10.699-6.851 11.017 3.994-7.644-9.681 9.659 7.79-3.478-12.991 7.457 10.572-1.045-12.486 4.233 11.319 3.603-11.897.876 11.933 5.348-10.181-3.16 11.645 9.793-7.586-6.322 9.672 10.744-4.186-8.215 8.073 11.016-.866z"/>
        </g>
      </g>
      <g fill="#000" clip-path="url(#j)" transform="matrix(.11145 0 0 -.11145 -4.32872411 81.89846826)">
        <g clip-path="url(#k)" opacity=".35000604">
          <path d="M40.4033 664.3701c33.74 33.739 60.687 44.155 85.143 48.91 3.236.629 3.848 7.7 3.848 7.7s.453-5.208 2.718-5.887c2.264-.68 5.207 8.152 5.207 8.152s-2.717-7.926 0-8.379c2.718-.453 7.699 7.699 7.699 7.699s-2.037-7.019-.678-7.472c1.357-.453 8.15 10.189 8.15 10.189s-4.076-7.019-.226-7.699c3.851-.679 9.467 4.791 9.467 4.791s-4.416-5.005-2.448-5.696c8.379-2.945 15.159 7.945 15.159 7.945s-1.571-4.775-5.647-9.983c8.83-2.264 15.389 11.039 15.389 11.039l-6.559-13.303c3.397-1.813 16.985 13.812 16.985 13.812s-7.02-12.228-11.096-14.718c2.264-1.812 10.416 5.434 10.416 5.434s-6.567-8.151-4.076-8.604c3.623-2.944 16.982 15.171 16.982 15.171s-5.207-10.642-12.906-19.021c6.435-3.219 22.418 17.436 22.418 17.436s-.453-6.567-12.002-16.983c8.605 1.132 19.701 17.436 19.701 17.436s-4.076-12.228-13.814-20.832c8.449.879 21.964 21.738 21.964 21.738s-5.207-14.492-15.849-22.871c11.775-2.604 28.758 14.945 28.758 14.945s-6.68-12.455-15.399-17.549c9.738-3.736 23.098 11.662 23.098 11.662s-13.36-20.607-34.645-19.701c-6.984.297-28.109 21.188-73.368 19.474-59.78-2.265-72.46-27.626-104.389-44.835"/>
        </g>
        <g>
          <path d="M41.7861 666.9326c33.74 33.739 60.686 44.154 85.142 48.91 3.237.629 3.849 7.699 3.849 7.699s.452-5.209 2.718-5.887c2.264-.679 5.207 8.151 5.207 8.151s-2.717-7.926 0-8.378c2.718-.452 7.699 7.699 7.699 7.699s-2.037-7.019-.68-7.472c1.359-.453 8.152 10.19 8.152 10.19s-4.076-7.02-.226-7.699c3.849-.68 9.467 4.79 9.467 4.79s-4.416-5.005-2.448-5.696c8.379-2.944 15.157 7.945 15.157 7.945s-1.571-4.775-5.645-9.983c8.83-2.265 15.389 11.04 15.389 11.04l-6.559-13.305c3.397-1.811 16.983 13.812 16.983 13.812s-7.018-12.226-11.094-14.717c2.264-1.812 10.416 5.434 10.416 5.434s-6.567-8.152-4.076-8.604c3.623-2.945 16.982 15.171 16.982 15.171s-5.209-10.643-12.906-19.021c6.435-3.22 22.418 17.436 22.418 17.436s-.453-6.568-12.002-16.984c8.605 1.133 19.701 17.437 19.701 17.437s-4.076-12.228-13.814-20.833c8.449.879 21.964 21.738 21.964 21.738s-5.207-14.492-15.849-22.87c11.775-2.604 28.758 14.944 28.758 14.944s-6.68-12.453-15.399-17.548c9.738-3.736 23.098 11.662 23.098 11.662s-13.36-20.607-34.647-19.701c-6.982.298-28.107 21.189-73.367 19.474-59.779-2.264-72.46-27.625-104.388-44.834"/>
        </g>
      </g>
      <g fill="#000" clip-path="url(#l)" transform="matrix(.11145 0 0 -.11145 -4.32872411 81.89846826)">
        <g clip-path="url(#m)" opacity=".35000604">
          <path d="M39.5195 660.6802c17.832-8.945 34.137 1.358 54.686-4.433 15.623-4.404 34.645-9.833 60.458-6.096 25.814 3.735 47.893 14.944 58.424 34.985 3.283 8.943 16.642-2.039 16.642-2.039s-9.736 4.076-9.509 2.151c.226-1.924 14.605-8.604 14.605-8.604s-13.021 4.076-12.228 1.019c.793-3.057 16.302-15.285 16.302-15.285s-17.548 13.36-19.019 11.549c-1.473-1.812 7.472-9.172 7.472-9.172s-14.832 9.172-20.041 6.467c-3.746-1.943 15.399-14.506 15.399-14.506s-12.455 9.512-15.399 7.021c-2.943-2.492 14.04-22.871 14.04-22.871s-19.249 20.833-21.172 19.814c-1.926-1.019 5.32-10.983 5.32-10.983s-9.51 10.417-12.113 8.605c-2.604-1.812 13.586-28.871 13.586-28.871s-17.549 27.738-24.795 23.098c11.379-24.966 7.133-28.533 7.133-28.533s-1.452 25.47-15.625 24.796c-7.133-.34 3.396-19.021 3.396-19.021s-9.691 17.062-16.145 16.722c11.895-22.511 7.655-31.667 7.655-31.667s1.967 19.226-14.166 29.925c6.113-5.433-3.836-29.925-3.836-29.925s8.752 36.091-6.455 29.21c-2.403-1.085-.17-18.002-.17-18.002s-3.057 19.362-7.641 18.342c-2.673-.593-16.984-26.833-16.984-26.833s11.719 28.362 8.153 27.173c-2.598-.867-7.473-12.568-7.473-12.568s2.377 11.549 0 12.228c-2.377.68-15.625-12.228-15.625-12.228s9.851 11.549 8.152 13.927c-2.574 3.603-5.591 3.772-9.171 2.377-5.209-2.03-12.227-11.548-12.227-11.548s6.996 9.637 5.773 13.247c-1.963 5.8-22.077-11.209-22.077-11.209s11.888 11.209 9.171 13.587c-2.717 2.377-17.471 1.642-22.078 1.655-13.586.042-18.294 3.229-22.418 6.496"/>
        </g>
        <g>
          <path d="M38.8408 662.7183c17.832-8.945 34.136 1.358 54.685-4.434 15.623-4.402 34.646-9.832 60.46-6.095 25.814 3.736 47.891 14.945 58.422 34.984 3.283 8.944 16.642-2.037 16.642-2.037s-9.736 4.075-9.509 2.15c.226-1.924 14.605-8.604 14.605-8.604s-13.021 4.075-12.228 1.018c.793-3.056 16.304-15.284 16.304-15.284s-17.55 13.361-19.021 11.548c-1.471-1.811 7.473-9.17 7.473-9.17s-14.833 9.17-20.041 6.467c-3.747-1.944 15.398-14.506 15.398-14.506s-12.455 9.511-15.398 7.02c-2.944-2.492 14.041-22.871 14.041-22.871s-19.25 20.833-21.174 19.814c-1.924-1.02 5.322-10.982 5.322-10.982s-9.512 10.416-12.115 8.604c-2.604-1.811 13.586-28.871 13.586-28.871s-17.549 27.739-24.795 23.097c11.379-24.965 7.133-28.532 7.133-28.532s-1.452 25.47-15.625 24.795c-7.133-.34 3.396-19.02 3.396-19.02s-9.691 17.063-16.144 16.723c11.896-22.512 7.654-31.668 7.654-31.668s1.967 19.227-14.166 29.926c6.113-5.434-3.836-29.926-3.836-29.926s8.754 36.091-6.453 29.21c-2.403-1.086-.17-18.002-.17-18.002s-3.059 19.361-7.642 18.342c-2.674-.593-16.985-26.833-16.985-26.833s11.719 28.362 8.153 27.172c-2.598-.865-7.473-12.566-7.473-12.566s2.378 11.548 0 12.227c-2.377.679-15.624-12.227-15.624-12.227s9.851 11.548 8.151 13.926c-2.574 3.603-5.591 3.771-9.17 2.376-5.21-2.029-12.228-11.547-12.228-11.547s6.996 9.638 5.774 13.247c-1.964 5.799-22.077-11.209-22.077-11.209s11.888 11.209 9.17 13.586c-2.717 2.378-17.471 1.642-22.078 1.656-13.586.043-18.293 3.229-22.417 6.496"/>
        </g>
      </g>
    </g>
    <path d="M11.402862 17.41904h-.162193l-.338545 1.367055-.0605.293492-.0708-.280619-.400334-1.379928h-.142883l-.4067696 1.379928-.0707985.279332-.0592134-.290917-.3424073-1.368343h-.162193l.4801427 1.87423h.151895l.4338021-1.466173.04763-.18665.04634.18665.426078 1.466173h.151895zM11.547034 18.617466c0 .40677.245864.701549.623027.701549.375876 0 .620452-.294779.620452-.701549v-.04119c0-.405482-.244576-.701549-.623026-.701549-.374589 0-.620453.296067-.620453.701549zm.15447-.04119c0-.299928.164767-.57025.465983-.57025.302502 0 .468557.270322.468557.57025v.04119c0 .306365-.166055.57025-.465983.57025-.30379 0-.468557-.263885-.468557-.57025zM13.649106 18.021471c.03862 0 .06951.0039.10298.009l.0051-.14031c-.0206-.0077-.06436-.01545-.10298-.01545-.18665 0-.315375.09397-.391322.24329l-.0039-.217545h-.150608v1.3928h.15447v-.960285c.05149-.182789.17764-.311514.386173-.311514zM14.893873 19.29327h.185364l-.642336-.805816.590846-.586984h-.194374l-.534207.522622-.145459.157044v-1.264075h-.153182v1.977209h.153182v-.531632l.176353-.169917zM16.41411 18.61103V18.584c0-.432515-.194374-.709273-.534207-.709273-.20081 0-.342407.08496-.435089.226556v-.78522h-.154469v1.977209h.144171l.0077-.1918c.09139.133874.236853.217545.440238.217545.335971 0 .531632-.292205.531632-.707985zm-.563813-.602431c.288343 0 .408057.251013.408057.575399v.02703c0 .324386-.124863.574111-.405483.574111-.213683 0-.343694-.114564-.408057-.262598v-.629461c.05793-.146746.173779-.284481.405483-.284481zM17.787602 19.071864l-.09783-.07337c-.100405.132586-.225268.190512-.390035.190512-.283195 0-.476281-.245864-.476281-.553515v-.02961h.993753v-.09397c0-.370727-.196948-.637187-.550941-.637187-.31795 0-.597282.275471-.597282.705411v.05535c0 .399046.261311.683527.624314.683527.249726 0 .402908-.11199.494303-.247151zm-.521335-1.06584c.261311 0 .391323.218832.396472.451824v.01673h-.832848c.03347-.281907.20081-.468558.436376-.468558zM18.687386 18.007312c.202098 0 .328248.09011.328248.37845v.907508h.154469v-.907508c0-.366865-.167342-.511037-.4441-.511037-.199523 0-.357854.104267-.454397.261311l-.0051-.235566h-.148034v1.3928h.15447v-.957711c.0605-.167342.199523-.328247.414493-.328247zM20.086623 19.187716c-.320524 0-.441525-.26646-.441525-.563814v-.05406c0-.294779.122288-.563814.43895-.563814.211109 0 .377163.137736.390036.363004h.146746c-.01287-.302503-.238141-.494303-.536782-.494303-.387461 0-.592133.30379-.592133.695113v.05406c0 .391323.203385.695113.594708.695113.283194 0 .521334-.190512.534207-.456972h-.146746c-.01545.212395-.194374.325673-.387461.325673zM21.498731 18.007312c.202098 0 .328248.09011.328248.37845v.907508h.154469v-.907508c0-.366865-.167342-.511037-.4441-.511037-.198235 0-.356567.10298-.45311.258737v-.817401h-.15447v1.977209h.15447v-.957711c.0605-.167342.199523-.328247.414493-.328247z" font-weight="300" style="-inkscape-font-specification:'Roboto, weight=255';font-variant-ligatures:normal;font-variant-caps:normal;font-variant-numeric:normal;font-feature-settings:normal;text-align:start"/>
  </g>
</svg>
