
<svg xmlns="http://www.w3.org/2000/svg" viewBox="0 0 24 24">
  <path fill="#9e9e9e" d="M12.000001 22c-4.7328361 0-8.5714296-1.28069-8.5714296-2.85715v-2.85713c0-.24834.1241522-.48411.3027235-.71429.9556472 1.23047 4.278749 2.14285 8.2687061 2.14285 3.989955 0 7.313057-.91238 8.268705-2.14285.178571.23018.302723.46595.302723.71429v2.85713c0 1.57646-3.839285 2.85715-8.571428 2.85715zm0-5.71428c-4.7328361 0-8.5714296-1.2807-8.5714296-2.85715v-2.85714c0-.15137.057186-.29855.1339285-.44433.043257-.0914.1004465-.18136.168795-.26995C4.6869421 11.08692 8.0100439 12 12.000001 12c3.989955 0 7.313057-.91308 8.268705-2.14285.06835.0886.125558.17857.168795.26995.07675.14578.133928.29296.133928.44433v2.85714c0 1.57645-3.839285 2.85715-8.571428 2.85715zm0-5.71429c-4.7328361 0-8.5714296-1.28-8.5714296-2.85715V6.28572 4.85715C3.4285714 3.28 7.2671649 2 12.000001 2c4.732143 0 8.571428 1.28 8.571428 2.85715V7.71428c0 1.57715-3.839285 2.85715-8.571428 2.85715zm0-7.14286c-3.1556934 0-5.7142868.63826-5.7142868 1.42858 0 .7903 2.5585934 1.42857 5.7142868 1.42857 3.155692 0 5.714286-.63827 5.714286-1.42857 0-.79032-2.558594-1.42858-5.714286-1.42858z"/>
</svg>
