
<svg xmlns="http://www.w3.org/2000/svg" width="24" height="24">
  <path d="M1.9375 0C.864125 0 0 .864125 0 1.9375v20.125C0 23.135875.864125 24 1.9375 24h20.125C23.135875 24 24 23.135875 24 22.0625V1.9375C24 .864125 23.135875 0 22.0625 0zm1.677734 2h16.769532C21.279245 2 22 2.7207553 22 3.615234v16.769532C22 21.279245 21.279245 22 20.384766 22H3.615234C2.720755 22 2 21.279245 2 20.384766V3.615234C2 2.7207553 2.720755 2 3.615234 2z"/>
  <g stroke-width=".0658805" aria-label="CQL" font-family="DejaVu Sans Mono" font-size="10.37969112" font-weight="700" letter-spacing="0" style="line-height:125%;-inkscape-font-specification:'DejaVu Sans Mono, Bold';font-variant-ligatures:normal;font-variant-caps:normal;font-variant-numeric:normal;font-feature-settings:normal;text-align:start" word-spacing="0">
    <path d="M8.28722413 14.6671831q-.32385586.16655488-.68009733.24983233-.35624139.08327927-.749495.08327927-1.3972067 0-2.13282208-.92067547-.73561548-.92067639-.73561548-2.6602446 0-1.74419525.73561548-2.66487118.73561539-.92067593 2.13282209-.92067593.3932536 0 .75412149.08327745.36086798.08327744.67547083.2498317v1.51749307q-.35161497-.32385586-.68472384-.47190427-.32848236-.15267492-.68009733-.15267492-.7494949 0-1.1334954.59682007-.3793741.59219347-.3793741 1.76270128 0 1.16588056.3793741 1.76270073.3840005.59219384 1.1334954.59219384.35161497 0 .68009733-.1480487.33310887-.152675.68472384-.4765303zM12.02081938 14.97253311q-.06476668.01387532-.11103629.01850347-.04163507.00925629-.08327927.00925629-1.18901309 0-1.80433954-.9067965-.61069958-.9067956-.61069958-2.67412356 0-1.77195429.61069958-2.6787507.61532645-.90679641 1.8135931-.90679641 1.20289297 0 1.8135921.90679641.61532636.90679641.61532636 2.6787507 0 1.21677285-.29147014 2.0402919-.29147015.81889274-.84665159 1.1705078l.86053146.84202527-.93455534.69397657zm-.18506017-5.91268256q-.52279628 0-.76337506.55980794-.24057877.55518172-.24057877 1.7997134 0 1.23990538.24057877 1.79971314.24057878.55518144.76337506.55518144.52742168 0 .76800045-.55518144.24057878-.55980776.24057878-1.79971313 0-1.2445317-.24057878-1.7997134-.24057877-.55980795-.76800045-.55980795zM15.7266556 14.86612315V7.95874068h1.36482063v5.7044895h2.91932957v1.20289297z" style="-inkscape-font-specification:'DejaVu Sans Mono, Bold';font-variant-ligatures:normal;font-variant-caps:normal;font-variant-numeric:normal;font-feature-settings:normal;text-align:start"/>
  </g>
</svg>
