
<svg xmlns="http://www.w3.org/2000/svg" viewBox="0 0 6.35 6.35">
  <g stroke-width=".26458">
    <path fill="none" d="M1.05833.82179h4.23334v4.23333H1.05833z"/>
    <path d="M4.47146 2.59273C4.3515 1.9842 3.81706 1.52735 3.175 1.52735c-.50976 0-.9525.28927-1.17299.7126-.53093.05645-.94368.50624-.94368 1.05128 0 .58385.47449 1.05834 1.05834 1.05834h2.29305c.48684 0 .88195-.39511.88195-.88195 0-.46566-.3616-.84314-.82021-.87489zM4.40972 3.9968H2.11667c-.38982 0-.70556-.31574-.70556-.70556 0-.38981.31574-.70555.70556-.70555h.12523c.11642-.40746.4886-.70556.9331-.70556.53622 0 .97014.43392.97014.97014v.0882h.26458c.2928 0 .52917.23636.52917.52916 0 .2928-.23636.52917-.52917.52917z"/>
    <g stroke-width=".14074" aria-label="CQL" font-family="DejaVu Sans" font-size="1.12589" font-stretch="semi-condensed" font-weight="700" letter-spacing="0" style="line-height:0%;-inkscape-font-specification:'DejaVu Sans, Normal';font-variant-ligatures:normal;font-variant-caps:normal;font-variant-numeric:normal;font-feature-settings:normal;text-align:start" word-spacing="0">
      <path d="M3.38777 5.4006q-.05277.0302-.10995.0456-.05662.0154-.1182.0154-.18471 0-.29246-.11435-.10775-.1149-.10775-.31115 0-.19682.10775-.31116.10775-.1149.29247-.1149.06157 0 .1182.0154.05717.0154.10994.0456v.16987q-.05332-.0401-.105-.0588-.05113-.0187-.10775-.0187-.10225 0-.16053.0726-.05827.0726-.05827.2001 0 .127.05827.19957.05828.0726.16053.0726.05662 0 .10775-.0187.05168-.0187.105-.0588zM3.9029 5.46052h-.01485q-.18252 0-.28422-.11215-.10116-.11215-.10116-.31225 0-.19957.10116-.31281.10115-.11325.27872-.11325.17977 0 .27983.11215.10005.11215.10005.3139 0 .13854-.05332.2386-.05278.10005-.15284.15063l.14899.18472h-.18142zm-.02035-.69708q-.08686 0-.13524.0715-.04783.0715-.04783.2012 0 .13195.04673.2023.04728.0698.13634.0698.08741 0 .13524-.0715.04838-.0715.04838-.20064 0-.12975-.04838-.20121-.04783-.0715-.13524-.0715zM4.40702 4.6249h.19076v.6608h.33425v.15998h-.52501z" style="-inkscape-font-specification:'DejaVu Sans Bold Semi-Condensed';font-variant-ligatures:normal;font-variant-caps:normal;font-variant-numeric:normal;font-feature-settings:normal;text-align:start"/>
    </g>
  </g>
</svg>
