
<svg xmlns="http://www.w3.org/2000/svg" width="24" height="24">
  <path d="M4.01758 0C1.79218 0 0 1.79219 0 4.01758v15.9668C0 22.20976 1.79219 24 4.01758 24h15.96484C22.20782 24 24 22.20977 24 19.98437V4.01758C24 1.7922 22.20781 0 19.98242 0zm1.33594 2.00977h13.29296c1.85292 0 3.34375 1.49083 3.34375 3.34375v13.29296c0 1.85292-1.49083 3.3457-3.34375 3.3457H5.35352c-1.85292 0-3.3457-1.49278-3.3457-3.3457V5.35352c0-1.85292 1.49278-3.34375 3.3457-3.34375z"/>
  <g style="line-height:125%;-inkscape-font-specification:'DejaVu Sans Mono, Bold';font-variant-ligatures:normal;font-variant-caps:normal;font-variant-numeric:normal;font-feature-settings:normal;text-align:start">
    <path stroke-width=".06588" style="-inkscape-font-specification:'DejaVu Sans Mono, Bold';font-variant-ligatures:normal;font-variant-caps:normal;font-variant-numeric:normal;font-feature-settings:normal;text-align:start" d="M8.28722 14.66718q-.32385.16656-.6801.24984-.35623.08327-.74949.08327-1.3972 0-2.13282-.92067-.73562-.92068-.73562-2.66025 0-1.7442.73562-2.66487.73562-.92067 2.13282-.92067.39326 0 .75412.08327.36087.08328.67547.24984v1.51749q-.35161-.32386-.68472-.4719-.32848-.15268-.6801-.15268-.7495 0-1.1335.59682-.37937.5922-.37937 1.7627 0 1.16588.37938 1.7627.384.5922 1.1335.5922.3516 0 .68009-.14805.3331-.15268.68472-.47653zm3.7336.30535q-.06477.01388-.11104.0185-.04163.00926-.08328.00926-1.189 0-1.80434-.9068-.6107-.90679-.6107-2.67412 0-1.77195.6107-2.67875.61533-.9068 1.8136-.9068 1.20289 0 1.81359.9068.61533.9068.61533 2.67875 0 1.21678-.29147 2.0403-.29147.81889-.84666 1.1705l.86054.84203-.93456.69397zm-.18506-5.91268q-.5228 0-.76338.5598-.24057.55519-.24057 1.79972 0 1.2399.24057 1.79972.24058.55518.76338.55518.52742 0 .768-.55518.24058-.55981.24058-1.79972 0-1.24453-.24058-1.79971-.24058-.5598-.768-.5598zm3.8909 5.80627V7.95874h1.36482v5.70449h2.91933v1.2029z" aria-label="CQL" font-family="DejaVu Sans Mono" font-size="10.37969" font-weight="700" letter-spacing="0" word-spacing="0"/>
  </g>
</svg>
