<svg xmlns="http://www.w3.org/2000/svg" viewBox="0 0 24 24" fill="#fdd835">
  <path d="M11.999742 1.99983a10 10 0 0 0-9.999907 9.9999 10 10 0 0 0 9.999907 10.00043 10 10 0 0 0 10.000423-10.00043 10 10 0 0 0-10.000423-9.9999zm.214457 3.72018c1.298505 0 2.339226.3638 3.122807 1.09141.78358.72201 1.23966 1.72379 1.368392 3.0055h-1.620057c-.139925-.97388-.445041-1.67907-.915189-2.11563-.464552-.43657-1.116403-.65474-1.955953-.65474-1.029849 0-1.838523.38085-2.426209 1.14205-.582088.76119-.873331 1.84405-.873331 3.24889v1.18391c0 1.32649.276854 2.3816.830957 3.16518.554103.78358 1.329689 1.17513 2.325956 1.17513.89552 0 1.580977-.20163 2.056722-.60462.481342-.40858.800331-1.11644.957047-2.1239h1.620057c-.15112 1.29291-.629603 2.29201-1.435572 2.99723-.800371.69963-1.866168 1.04955-3.198254 1.04955-1.444027 0-2.602625-.51795-3.475757-1.55339-.867535-1.03545-1.301729-2.42075-1.301729-4.15582v-1.17512c0-1.13619.20163-2.1353.604614-2.99724.408581-.86193.985209-1.52232 1.72961-1.98127.744402-.46455 1.606413-.69712 2.585889-.69712z"/>
</svg>