
<svg xmlns="http://www.w3.org/2000/svg" viewBox="0 0 24 24" >
  <path fill="#ffa000" d="M21.85617249 11.65226589l-1.3900712-1.3900712c-.08397165-.08397165-.1963121-.13503549-.31546106-.14297875l-9.00312237-.59234055c-.1963121-.30070928-.5106384-.75347533-.76028384-1.00312077-1.91546137-1.91546137-5.03375987-1.91546137-6.950356.00113476-1.91659612 1.91659612-1.91546137 5.03375987.00113476 6.950356 1.91659612 1.91659612 5.03489462 1.91659612 6.95149075 0 .5696455-.5696455.84198598-1.05985837 1.03602857-1.4990074l1.5841138.78070938c.19290784.09531917.425532.05333334.57304976-.10099293l1.29021302-1.34922013 1.41957475 1.23574493c.19063834.1656738.47546109.16000003.65929091-.01248227l1.63290813-1.53531946 1.26978749.80907818c.1940426.12368797.4493618.09531917.61163133-.06695037l1.3900712-1.3900712c.19177309-.19177309.19177309-.50269513 0-.69446822zM5.8697863 10.95779766c.41758874.41758874.53219869 1.02241156.34496461 1.54326272-.07148938.1985816-.18609933.38354618-.3449646.54241146-.57531927.57531926-1.51035492.57531926-2.08567418 0-.57531927-.57531926-.57531927-1.51035491 0-2.08567418.57531926-.57531926 1.5103549-.57531926 2.08567417 0z"/>
</svg>