
<svg xmlns="http://www.w3.org/2000/svg" width="24" height="24" fill="#ffffff">
  <path d="M2.3828125 0C1.062623 0 0 1.062623 0 2.3828125V21.617188C0 22.937377 1.062623 24 2.3828125 24H21.617188C22.937377 24 24 22.937377 24 21.617188V2.3828125C24 1.062623 22.937377 0 21.617188 0H2.3828125zm3.2304687 7.0351562c.4751597 0 .899276.0988919 1.2714844.296875.3722084.1979832.6840815.4223628.9375.6757813l-.7714844.8554687c-.1900638-.1900638-.4030451-.3403012-.640625-.4511718-.2296604-.1187899-.4959405-.1777344-.796875-.1777344-.3246924 0-.6213678.0665433-.890625.2011719-.2692571.1267092-.4993892.3130946-.6894531.5585937-.1900638.2375798-.3403013.5304559-.4511719.8789063-.1029512.3484501-.1542968.7402181-.1542968 1.1757811 0 .443482.0513456.844802.1542968 1.201172.1108706.34845.2611081.645126.4511719.890625.1979832.23758.4319148.423965.7011719.558594.2771765.126709.5814507.189453.9140625.189453.3167731 0 .5982509-.066543.84375-.201172.2534185-.134629.4911495-.324813.7128906-.570312l.7597657.84375c-.3167731.364289-.6723931.643813-1.0683594.841796-.3959664.190064-.8390799.285157-1.3300782.285157-.4989176 0-.9667807-.085541-1.4023437-.259766-.4276437-.174225-.8042138-.432906-1.1289063-.773437-.316773-.340532-.5659023-.760848-.7480468-1.259766-.1821446-.498918-.2734375-1.067519-.2734375-1.708984 0-.633547.0912929-1.2003016.2734375-1.6992192.1821445-.506837.4312738-.9347528.7480468-1.2832032.3246925-.3484504.705062-.6127773 1.140625-.7949218.4434824-.1821446.9227438-.2734375 1.4375-.2734376zm6.3515628 0c.451401 1e-7.862166.091293 1.234375.2734376.372208.1821445.689834.442672.951172.7832031.269257.3405311.474639.760848.617187 1.2597656.150467.4909983.226563 1.0482015.226563 1.6738285 0 1.069109-.203537 1.947737-.607422 2.636718-.403886.681063-.945891 1.12233-1.626953 1.320313.134628.300934.341964.517715.61914.652344.277177.142548.58525.214843.925782.214843.118789 0 .229079-.01715.332031-.048828.102951-.023758.194244-.054153.273437-.09375l.25 1.056641c-.134628.063354-.284866.110901-.451172.142578-.166306.039597-.352691.058594-.558593.058594-.728578 0-1.331481-.180633-1.806641-.544922-.46724-.364289-.811462-.832152-1.033203-1.402344-.35637-.079193-.679641-.229431-.972656-.451172-.293015-.221741-.5478973-.503219-.7617191-.84375-.2059025-.340531-.3637388-.736098-.4746094-1.1875-.1108706-.459321-.1660156-.963332-.1660156-1.509765 0-.625627.0703427-1.1828302.2128906-1.6738285.1504672-.4989176.3578028-.9192345.6191406-1.2597656.2692569-.3405311.5887289-.6010586.9609379-.7832031.372208-.1821446.784926-.2734375 1.236328-.2734376zm5.007812.1425782h1.365235V13.78125h3.648437v1.164062h-5.013672V7.1777344zm-5.007812 1.0449218c-.506837 0-.908157.2491293-1.201172.7480469-.285096.4989177-.425781 1.1835619-.425781 2.0546879 0 .435563.034194.83113.105468 1.1875.079194.356369.185684.662597.320313.916015.142548.245499.313735.435684.511719.570313.205902.134628.436034.201172.689453.201172.245499 0 .466079-.066544.664062-.201172.205903-.134629.37709-.324814.511719-.570313.142548-.253418.249039-.559646.320313-.916015.079193-.35637.11914-.751937.11914-1.1875 0-.871126-.146438-1.5557702-.439453-2.0546879-.285096-.4989176-.676864-.7480468-1.175781-.7480469z" paint-order="fill markers stroke"/>
</svg>
