<svg xmlns="http://www.w3.org/2000/svg" width="24" height="24">
  <path d="M3.119141 2.8e-7C1.391412 2.8e-7 0 1.3914121 0 3.1191409V20.880859C0 22.608588 1.391412 24 3.119141 24h17.763671c1.727728 0 3.117187-1.391412 3.117187-3.119141V3.1191409c0-1.7277288-1.389459-3.11914062-3.117187-3.11914062zM5.605469 7.0273435c.475845 0 .900692.098607 1.273437.296876.372746.198268.685669.42395.939454.677734l-.773438.857422c-.190338-.190338-.404655-.342095-.642578-.453125-.229992-.118962-.495506-.177735-.796875-.177735-.325161 0-.622933.068303-.892578.203125-.269646.126892-.499115.312741-.689453.558594-.190338.237923-.342095.5319055-.453125.8808585-.1031.348954-.154297.741543-.154297 1.177735 0 .444122.051197.844288.154297 1.201172.11103.348953.262787.646724.453125.892578.198268.237923.431526.423771.701172.558594.277576.126892.582923.189453.916015.189453.31723 0 .59985-.06635.845703-.201172.253784-.134823.49083-.326412.712891-.572266l.761719.845703c-.317231.364815-.673775.645482-1.070313.84375-.396538.190338-.842277.285157-1.333984.285157-.499638 0-.966153-.08724-1.402344-.261719-.428261-.174477-.805698-.430462-1.130859-.771485-.317231-.341022-.567593-.762081-.75-1.261718C2.09103 12.297237 2 11.726375 2 11.083984c0-.63446.09103-1.201534.273438-1.701172.182407-.5075675.432769-.9362025.75-1.2851555.325161-.348953.706386-.614468 1.142578-.796875.444122-.182407.923954-.273437 1.439453-.273438zm6.359375 0c.452053 0 .863583.091031 1.236328.273438.372745.182407.69141.444134.953125.785156.269646.341023.474434.762081.617187 1.2617185.150685.491707.226563 1.049252.226563 1.675781 0 1.070652-.201 1.952603-.605469 2.642578-.404468.682045-.948814 1.122044-1.630859 1.320313.134823.301369.341564.519474.619141.654297.277576.142753.586711.21289.927734.21289.118961 0 .228931-.01515.332031-.04687.1031-.02379.196083-.05605.275391-.0957l.248047 1.058594c-.134823.06345-.284626.110855-.451172.142578-.166546.03965-.352394.06055-.558594.06055-.729629 0-1.332748-.18206-1.808594-.546875-.467914-.364815-.813095-.833283-1.035156-1.404297-.356884-.07931-.681171-.231064-.974609-.453125s-.547589-.502727-.761719-.84375c-.2062-.341022-.365532-.7374-.476563-1.189453-.11103-.459984-.166015-.964497-.166015-1.511719 0-.626529.07209-1.184074.214843-1.675781.150685-.4996375.355473-.9206955.617188-1.2617185.269646-.341022.592098-.602749.964844-.785156.372745-.182407.784275-.273437 1.236328-.273438zm5.015624.142579h1.367188v6.6132805H22v1.166016h-5.019532zm-5.015624 1.046875c-.507568 0-.907734.250362-1.201172.75-.285507.4996365-.427734 1.1842565-.427734 2.0566395 0 .436192.03409.832569.105468 1.189453.07931.356884.187443.662232.322266.916016.142754.245853.31345.437443.511719.572266.206199.134822.435669.201171.689453.201171.245853 0 .467747-.06635.666016-.201171.206199-.134823.376895-.326413.511718-.572266.142754-.253784.248936-.559132.320313-.916016.07931-.356884.11914-.753261.11914-1.189453 0-.872383-.146015-1.557003-.439453-2.0566395-.285507-.499638-.678097-.75-1.177734-.75z"/>
</svg>