<svg xmlns="http://www.w3.org/2000/svg" viewBox="0 0 24 24" fill="#ff5252">
  <path d="M11.999741 1.99983a10 10 0 0 0-9.999906 9.99991 10 10 0 0 0 9.999906 10.00042 10 10 0 0 0 10.000424-10.00042 10 10 0 0 0-10.000424-9.99991zM8.1338279 5.88797h4.5087681c1.337684 0 2.384265.34139 3.13986 1.02422.761192.68284 1.141533 1.58699 1.141533 2.71198 0 1.18657-.37181 2.1014-1.116211 2.74506-.738805.63805-1.799775.95704-3.182235.95704H9.7461319v4.78576h-1.612304zm1.612304 1.32653v4.79402h2.8964641c.861939 0 1.52232-.20163 1.981274-.60461.458955-.40858.688331-.99641.688331-1.7632 0-.72761-.229376-1.30958-.688331-1.74615-.458954-.43656-1.088918-.66327-1.88929-.68006z"/>
</svg>